<?xml version="1.0" encoding="utf-8"?>
<!-- Generator: Adobe Illustrator 27.5.0, SVG Export Plug-In . SVG Version: 6.00 Build 0)  -->
<svg version="1.1" xmlns="http://www.w3.org/2000/svg" xmlns:xlink="http://www.w3.org/1999/xlink" x="0px" y="0px"
	 viewBox="0 0 3710 3710" style="enable-background:new 0 0 3710 3710;" xml:space="preserve">
<g id="Background">
	<g>
		<g>
			<rect style="fill:#FFFFFF;" width="3710" height="3710"/>
		</g>
	</g>
</g>
<g id="Illustration">
	<g>
		<linearGradient id="SVGID_1_" gradientUnits="userSpaceOnUse" x1="3394.6067" y1="3600.8816" x2="1348.8253" y2="1392.7366">
			<stop  offset="0" style="stop-color:#DAE3FE"/>
			<stop  offset="1" style="stop-color:#E9EFFD"/>
		</linearGradient>
		<path style="fill:url(#SVGID_1_);" d="M3109.514,2342.542c-281.105,657.051-1023.133,939.269-1604.522,891.151
			c-158.743-13.138-478.138-39.573-727.524-275.409c-478.929-452.908-405.169-1399.612,53.303-1956.979
			c59.042-71.777,467.72-552.678,1104.568-546.241c466.266,4.713,793.533,268.1,833.328,300.913
			c50.271,41.452,161.149,139.954,261.076,296.222C3264.537,1419.373,3285.176,1931.951,3109.514,2342.542z"/>
		<g>
			
				<linearGradient id="SVGID_00000139988898767791784740000014688113745111430036_" gradientUnits="userSpaceOnUse" x1="3310.9722" y1="526.7374" x2="2976.8455" y2="1128.1656">
				<stop  offset="0" style="stop-color:#09005D"/>
				<stop  offset="1" style="stop-color:#1A0F91"/>
			</linearGradient>
			<path style="fill:url(#SVGID_00000139988898767791784740000014688113745111430036_);" d="M2471.035,1723.572
				c-4.619,0-8.427-3.678-8.56-8.325c-0.028-0.977-2.468-98.938,23.515-200.36c34.902-136.237,104.904-216.98,202.44-233.503
				c45.347-7.684,86.038,2.846,120.94,31.293c123.186,100.396,134.794,389.755,135.228,402.025c0.167,4.729-3.531,8.697-8.26,8.866
				c-4.719,0.115-8.698-3.531-8.865-8.26c-0.104-2.927-11.764-293.879-128.939-389.357c-30.903-25.181-66.983-34.487-107.241-27.671
				c-219.875,37.248-211.794,412.694-211.687,416.483c0.134,4.731-3.591,8.673-8.322,8.807
				C2471.201,1723.57,2471.117,1723.572,2471.035,1723.572z"/>
			
				<linearGradient id="SVGID_00000042697872118109654700000012813439911435707282_" gradientUnits="userSpaceOnUse" x1="2962.6653" y1="1808.7203" x2="2109.3516" y2="3304.5869">
				<stop  offset="0" style="stop-color:#4F52FF"/>
				<stop  offset="1" style="stop-color:#4042E2"/>
			</linearGradient>
			<path style="fill:url(#SVGID_00000042697872118109654700000012813439911435707282_);" d="M2039.088,2999.806l176.205-1372.535
				l661.934-12.571l213.351,1461.39h-994.173C2061.041,3076.089,2033.927,3040.004,2039.088,2999.806z"/>
			
				<linearGradient id="SVGID_00000178901160116434203750000011177648161883638934_" gradientUnits="userSpaceOnUse" x1="3999.6794" y1="1624.4158" x2="3372.5469" y2="2102.4758">
				<stop  offset="0" style="stop-color:#4F52FF"/>
				<stop  offset="1" style="stop-color:#4042E2"/>
			</linearGradient>
			<path style="fill:url(#SVGID_00000178901160116434203750000011177648161883638934_);" d="M3005.784,1627.271l-128.557-12.571
				l213.351,1461.39h127.626c25.876,0,45.214-27.323,39.939-56.429L3005.784,1627.271z"/>
			
				<linearGradient id="SVGID_00000089532026751503973490000000399241034686861459_" gradientUnits="userSpaceOnUse" x1="3201.0112" y1="465.6523" x2="2866.8828" y2="1067.0836">
				<stop  offset="0" style="stop-color:#09005D"/>
				<stop  offset="1" style="stop-color:#1A0F91"/>
			</linearGradient>
			<path style="fill:url(#SVGID_00000089532026751503973490000000399241034686861459_);" d="M2793.796,1720.578
				c-4.592,0-8.394-3.64-8.558-8.265c-0.104-2.927-11.764-293.879-128.939-389.357c-30.903-25.181-66.978-34.489-107.242-27.671
				c-91.563,15.512-155.022,89.708-188.617,220.529c-25.454,99.125-23.096,194.998-23.069,195.955
				c0.132,4.729-3.594,8.672-8.323,8.805c-4.62,0.105-8.67-3.591-8.806-8.322c-0.027-0.977-2.468-98.938,23.515-200.36
				c34.902-136.237,104.906-216.98,202.439-233.503c45.351-7.686,86.038,2.846,120.94,31.292
				c123.186,100.396,134.794,389.755,135.228,402.024c0.167,4.729-3.531,8.697-8.26,8.866
				C2794.002,1720.576,2793.898,1720.578,2793.796,1720.578z"/>
		</g>
		<g>
			<g>
				
					<linearGradient id="SVGID_00000060711870088480204980000016409843353036755129_" gradientUnits="userSpaceOnUse" x1="-6054.3247" y1="1851.808" x2="-4396.0947" y2="1851.808" gradientTransform="matrix(-1 0 0 1 -3660.8049 0)">
					<stop  offset="0" style="stop-color:#09005D"/>
					<stop  offset="1" style="stop-color:#1A0F91"/>
				</linearGradient>
				<path style="fill:url(#SVGID_00000060711870088480204980000016409843353036755129_);" d="M2366.395,690.711
					c8.731,411.989,37.045,1833.091,23.528,2336.687c-1.432,53.351-37.992,96.172-83.596,97.919
					c-225.553,8.634-1052.42,30.521-1421.35,12.413c-76.843-3.772-137.951-76.587-139.545-166.541
					c-7.667-432.435-24.58-1648.709,15.622-2205.885c4.819-66.758,49.608-119.92,106.591-126.589
					c245.639-28.747,1076.061-99.016,1394.795-74.82C2319.923,568.26,2364.968,623.343,2366.395,690.711z"/>
				<path style="fill:#91B3FA;" d="M2265.753,817.112c12.141,332.536,50.436,1438.805,38.281,1847.879
					c-1.775,59.793-42.059,108.138-93.113,111.634c-210.205,14.391-927.372,46.121-1235.691,17.239
					c-55.517-5.201-99.083-57.727-102.081-122.789c-15.623-339.255-60.484-1369.347-48.834-1773.838
					c1.86-64.527,44.586-117.225,99.555-122.999c227.408-23.886,989.48-80.719,1251.479-63.997
					C2224.533,713.381,2263.652,759.542,2265.753,817.112z"/>
				
					<linearGradient id="SVGID_00000070829973084253939960000016280500320353058957_" gradientUnits="userSpaceOnUse" x1="1398.8804" y1="664.7073" x2="1709.9838" y2="664.7073">
					<stop  offset="0" style="stop-color:#4F52FF"/>
					<stop  offset="1" style="stop-color:#4042E2"/>
				</linearGradient>
				<path style="fill:url(#SVGID_00000070829973084253939960000016280500320353058957_);" d="M1709.984,656.505L1709.984,656.505
					c0,12.642-8.421,23.069-19.212,23.729c-53.275,3.264-203.349,12.499-270.421,17.051c-13.223,0.899-23.603-13.007-21.095-28.225
					l0.429-2.596c1.712-10.382,9.072-18.197,18.072-19.162c45.337-4.86,182.137-18.336,272.776-14.551
					C1701.42,633.206,1709.984,643.76,1709.984,656.505z"/>
				<g>
					<defs>
						<path id="SVGID_00000114057914927378849240000017344887271952669089_" d="M2265.753,817.112
							c12.141,332.536,50.436,1438.805,38.281,1847.879c-1.775,59.793-42.059,108.138-93.113,111.634
							c-210.205,14.391-927.372,46.121-1235.691,17.239c-55.517-5.201-99.083-57.727-102.081-122.789
							c-15.623-339.255-60.484-1369.347-48.834-1773.838c1.86-64.527,44.586-117.225,99.555-122.999
							c227.408-23.886,989.48-80.719,1251.479-63.997C2224.533,713.381,2263.652,759.542,2265.753,817.112z"/>
					</defs>
					<use xlink:href="#SVGID_00000114057914927378849240000017344887271952669089_"  style="overflow:visible;fill:#7D97F4;"/>
					<clipPath id="SVGID_00000127021177696173821220000010202002394061565863_">
						<use xlink:href="#SVGID_00000114057914927378849240000017344887271952669089_"  style="overflow:visible;"/>
					</clipPath>
					
						<linearGradient id="SVGID_00000168093528797656912040000015502022963455632570_" gradientUnits="userSpaceOnUse" x1="1519.9707" y1="1023.5274" x2="1573.0176" y2="434.1216">
						<stop  offset="0" style="stop-color:#A737D5"/>
						<stop  offset="1" style="stop-color:#EF497A"/>
					</linearGradient>
					
						<rect x="610.034" y="513.548" style="clip-path:url(#SVGID_00000127021177696173821220000010202002394061565863_);fill:url(#SVGID_00000168093528797656912040000015502022963455632570_);" width="1872.326" height="437.151"/>
				</g>
				<g>
					<path style="fill:#91B3FA;" d="M1487.4,1825.001H985.009c-29.815,0-53.985-24.17-53.985-53.985v-576.625
						c0-29.815,24.17-53.985,53.985-53.985h502.392c29.815,0,53.985,24.17,53.985,53.985v576.625
						C1541.386,1800.831,1517.216,1825.001,1487.4,1825.001z"/>
					<path style="fill:#BDD0FB;" d="M1500.505,1903.359H971.904c-24.855,0-45.004-20.149-45.004-45.004v-111.71h618.61v111.71
						C1545.51,1883.209,1525.361,1903.359,1500.505,1903.359z"/>
					<path style="opacity:0.6;fill:#FFFFFF;" d="M1466.839,1853.87h-461.268c-3.59,0-6.5-2.91-6.5-6.5v-40.613
						c0-3.59,2.91-6.5,6.5-6.5h461.268c3.59,0,6.5,2.91,6.5,6.5v40.613C1473.339,1850.96,1470.429,1853.87,1466.839,1853.87z"/>
				</g>
				<g>
					<path style="fill:#91B3FA;" d="M2159.623,1825.001h-502.391c-29.815,0-53.985-24.17-53.985-53.985v-576.625
						c0-29.815,24.17-53.985,53.985-53.985h502.391c29.815,0,53.986,24.17,53.986,53.985v576.624
						C2213.609,1800.831,2189.439,1825.001,2159.623,1825.001z"/>
					<path style="fill:#BDD0FB;" d="M2172.729,1903.359h-528.601c-24.855,0-45.004-20.149-45.004-45.004v-111.71h618.61v111.71
						C2217.733,1883.209,2197.583,1903.359,2172.729,1903.359z"/>
					<path style="opacity:0.6;fill:#FFFFFF;" d="M2139.062,1853.87h-461.268c-3.59,0-6.5-2.91-6.5-6.5v-40.613
						c0-3.59,2.91-6.5,6.5-6.5h461.268c3.59,0,6.5,2.91,6.5,6.5v40.613C2145.562,1850.96,2142.651,1853.87,2139.062,1853.87z"/>
				</g>
				<g>
					<path style="fill:#91B3FA;" d="M1487.401,2637.442H985.009c-29.815,0-53.985-24.17-53.985-53.985v-576.625
						c0-29.815,24.17-53.985,53.985-53.985h502.392c29.815,0,53.985,24.17,53.985,53.985v576.625
						C1541.386,2613.272,1517.216,2637.442,1487.401,2637.442z"/>
					<path style="fill:#BDD0FB;" d="M1500.505,2715.8H971.904c-24.855,0-45.004-20.149-45.004-45.004v-111.71h618.61v111.71
						C1545.51,2695.651,1525.361,2715.8,1500.505,2715.8z"/>
					<path style="opacity:0.6;fill:#FFFFFF;" d="M1466.839,2666.311h-461.268c-3.59,0-6.5-2.91-6.5-6.5v-40.613
						c0-3.59,2.91-6.5,6.5-6.5h461.268c3.59,0,6.5,2.91,6.5,6.5v40.613C1473.339,2663.401,1470.429,2666.311,1466.839,2666.311z"/>
				</g>
				<g>
					<path style="fill:#91B3FA;" d="M2159.624,2637.442h-502.392c-29.815,0-53.985-24.17-53.985-53.985v-576.625
						c0-29.815,24.17-53.985,53.985-53.985h502.391c29.815,0,53.986,24.17,53.986,53.985v576.624
						C2213.609,2613.272,2189.439,2637.442,2159.624,2637.442z"/>
					<path style="fill:#BDD0FB;" d="M2172.729,2715.8h-528.602c-24.855,0-45.004-20.149-45.004-45.004v-111.71h618.61v111.71
						C2217.733,2695.651,2197.583,2715.8,2172.729,2715.8z"/>
					<path style="opacity:0.6;fill:#FFFFFF;" d="M2139.062,2666.311h-461.268c-3.59,0-6.5-2.91-6.5-6.5v-40.613
						c0-3.59,2.91-6.5,6.5-6.5h461.268c3.59,0,6.5,2.91,6.5,6.5v40.613C2145.562,2663.401,2142.651,2666.311,2139.062,2666.311z"/>
				</g>
			</g>
			<g>
				<g>
					<path style="fill:#FFFFFF;" d="M1455.397,2235.68c40.904-49.55,38.191-123.01-8.168-169.369
						c-46.36-46.359-119.819-49.072-169.369-8.168L1455.397,2235.68z"/>
					<path style="fill:#FFFFFF;" d="M1259.502,2076.781c-39.66,49.523-36.557,122.001,9.349,167.907
						c45.906,45.906,118.384,49.009,167.907,9.349L1259.502,2076.781z"/>
				</g>
				<path style="fill:#FFFFFF;" d="M1261.287,2287.334l-35.082-35.082c-1.623-1.623-1.623-4.254,0-5.877l11.298-11.302
					c1.623-1.623,4.254-1.624,5.877,0l35.086,35.086c1.623,1.623,1.623,4.254,0,5.877l-11.302,11.299
					C1265.541,2288.957,1262.91,2288.957,1261.287,2287.334z"/>
				<path style="fill:#FFFFFF;" d="M1237.139,2276.4L1237.139,2276.4c-6.788-6.789-17.623-7.311-25.032-1.207l-170.317,140.305
					c-18.206,14.998-19.527,42.42-2.848,59.099l0,0c16.679,16.679,44.101,15.358,59.099-2.848l140.305-170.317
					C1244.45,2294.022,1243.928,2283.188,1237.139,2276.4z"/>
			</g>
			<g>
				<path style="fill:#FFFFFF;" d="M1933.216,2220.085l-4.743,4.743c-8.838,8.838-8.838,23.167,0,32.004l15.563,15.563
					c8.838,8.838,23.167,8.837,32.005,0l4.743-4.743c24.502-24.503,56.652-40.16,91.151-43.412
					c23.429-2.209,47.02-12.838,65.82-31.638c39.771-39.771,43.025-100.999,7.267-136.756
					c-35.758-35.758-96.985-32.504-136.756,7.268c-18.8,18.8-29.43,42.39-31.639,65.82
					C1973.375,2163.433,1957.718,2195.583,1933.216,2220.085z"/>
				<path style="fill:#FFFFFF;" d="M2011.83,2443.253l-253.885-253.884c-2.866-2.866-7.513-2.866-10.378,0l-5.477,5.477
					c-2.866,2.866-2.866,7.513,0,10.379l78.439,78.439c-37.022-6.536-76.558,4.436-105.1,32.978
					c-46.447,46.447-46.447,122.021,0,168.468c46.447,46.447,122.021,46.447,168.468,0c28.541-28.542,39.514-68.078,32.978-105.1
					l79.099,79.1c2.866,2.866,7.513,2.866,10.379,0l5.477-5.477C2014.696,2450.766,2014.696,2446.119,2011.83,2443.253z
					 M1868.041,2469.253c-37.704,37.704-99.052,37.704-136.756,0s-37.704-99.052,0-136.756s99.052-37.704,136.756,0
					S1905.745,2431.549,1868.041,2469.253z"/>
				<path style="fill:#FFFFFF;" d="M1788.831,2204.399l207.638,207.639c2.866,2.866,7.513,2.866,10.379,0
					c2.385-2.385,2.837-6.089,1.096-8.978l-56.694-94.074c-0.308-0.51-0.676-0.981-1.096-1.401l-56.871-56.871
					c-0.421-0.421-0.892-0.789-1.401-1.096l-94.074-56.694c-2.889-1.741-6.593-1.289-8.977,1.096
					C1785.965,2196.886,1785.965,2201.533,1788.831,2204.399z"/>
			</g>
			<g>
				<path style="fill:#FFFFFF;" d="M1905.039,1700.512c-69.337,0-128.834-18.139-172.057-52.455
					c-47.582-37.777-72.733-93.625-72.733-161.502c0-140.421,106.929-303.652,244.79-303.652
					c137.859,0,244.789,163.231,244.789,303.652c0,67.878-25.152,123.725-72.733,161.502
					C2033.872,1682.373,1974.376,1700.512,1905.039,1700.512z M1905.039,1207.196c-56.158,0-111.136,31.903-154.806,89.833
					c-41.134,54.567-65.692,125.418-65.692,189.526c0,139.84,113.902,189.665,220.497,189.665
					c106.595,0,220.497-49.825,220.497-189.665c0-64.108-24.557-134.959-65.692-189.526
					C2016.174,1239.099,1961.197,1207.196,1905.039,1207.196z M1905.974,1418.35c-70.064,0-127.066-46.524-127.066-103.709
					c0-57.186,57.002-103.709,127.066-103.709c70.064,0,127.066,46.523,127.066,103.709
					C2033.04,1371.826,1976.038,1418.35,1905.974,1418.35z M1905.974,1235.224c-56.67,0-102.774,35.626-102.774,79.417
					c0,43.79,46.104,79.417,102.774,79.417c56.67,0,102.774-35.626,102.774-79.417
					C2008.748,1270.851,1962.644,1235.224,1905.974,1235.224z"/>
				<g>
					
						<ellipse transform="matrix(0.1602 -0.9871 0.9871 0.1602 70.9423 3181.2695)" style="fill:#FFFFFF;" cx="1905.039" cy="1548.943" rx="22.929" ry="22.929"/>
					<path style="fill:#FFFFFF;" d="M1934.519,1476.882c0,23.065-13.199,46.676-29.48,46.676c-16.281,0-29.48-23.611-29.48-46.676
						c0-23.065,13.199-36.85,29.48-36.85C1921.32,1440.032,1934.519,1453.816,1934.519,1476.882z"/>
					<path style="fill:#FFFFFF;" d="M1843.965,1504.648c21.936,7.127,40.313,26.976,35.282,42.461
						c-5.031,15.484-31.566,20.741-53.502,13.613c-21.936-7.127-30.968-23.94-25.936-39.424
						C1804.84,1505.814,1822.029,1497.521,1843.965,1504.648z"/>
					<path style="fill:#FFFFFF;" d="M1843.908,1594.55c13.557-18.66,38.114-30.004,51.286-20.434
						c13.172,9.57,9.971,36.43-3.586,55.09c-13.557,18.66-32.337,22.054-45.509,12.484
						C1832.926,1632.12,1830.351,1613.21,1843.908,1594.55z"/>
					<path style="fill:#FFFFFF;" d="M1925.022,1625.93c-13.558-18.66-16.758-45.52-3.586-55.09
						c13.172-9.57,37.728,1.774,51.285,20.434c13.557,18.66,10.982,37.57-2.19,47.14
						C1957.36,1647.985,1938.579,1644.591,1925.022,1625.93z"/>
					<path style="fill:#FFFFFF;" d="M1984.333,1555.809c-21.936,7.128-48.471,1.871-53.502-13.613
						c-5.031-15.484,13.346-35.333,35.282-42.461c21.936-7.128,39.125,1.166,44.156,16.65
						C2015.3,1531.869,2006.269,1548.682,1984.333,1555.809z"/>
				</g>
			</g>
			<g>
				<g>
					
						<linearGradient id="SVGID_00000142153559354682588050000002909636163306997893_" gradientUnits="userSpaceOnUse" x1="1045.405" y1="1075.6028" x2="1117.3711" y2="576.9819">
						<stop  offset="0" style="stop-color:#4F52FF"/>
						<stop  offset="1" style="stop-color:#4042E2"/>
					</linearGradient>
					<polygon style="fill:url(#SVGID_00000142153559354682588050000002909636163306997893_);" points="979.621,736.467 
						896.67,1107.696 1184.802,1108.214 1225.691,731.029 					"/>
					
						<linearGradient id="SVGID_00000175314365718720588440000005179633167368312723_" gradientUnits="userSpaceOnUse" x1="726.7808" y1="557.6787" x2="726.7808" y2="1123.1243">
						<stop  offset="0" style="stop-color:#FE7062"/>
						<stop  offset="1" style="stop-color:#FF928E"/>
					</linearGradient>
					<polygon style="fill:url(#SVGID_00000175314365718720588440000005179633167368312723_);" points="824.486,739.896 
						473.94,1106.938 896.67,1107.696 979.621,736.467 					"/>
					
						<linearGradient id="SVGID_00000023999197871447269550000004936344320881298350_" gradientUnits="userSpaceOnUse" x1="1308.9595" y1="557.6785" x2="1308.9595" y2="1123.1239">
						<stop  offset="0" style="stop-color:#FE7062"/>
						<stop  offset="1" style="stop-color:#FF928E"/>
					</linearGradient>
					<polygon style="fill:url(#SVGID_00000023999197871447269550000004936344320881298350_);" points="1225.691,731.029 
						1184.802,1108.214 1406.062,1108.611 1433.117,726.445 					"/>
					
						<linearGradient id="SVGID_00000153695608655337714050000007723889208815442324_" gradientUnits="userSpaceOnUse" x1="1816.2987" y1="557.6786" x2="1816.2987" y2="1123.1266">
						<stop  offset="0" style="stop-color:#FE7062"/>
						<stop  offset="1" style="stop-color:#FF928E"/>
					</linearGradient>
					<polygon style="fill:url(#SVGID_00000153695608655337714050000007723889208815442324_);" points="1691.865,720.726 
						1719.365,1109.173 1940.733,1109.571 1898.085,716.169 					"/>
					
						<linearGradient id="SVGID_00000034068428790100061410000006840707102364015014_" gradientUnits="userSpaceOnUse" x1="2019.9183" y1="1216.2542" x2="2091.8843" y2="717.6338">
						<stop  offset="0" style="stop-color:#4F52FF"/>
						<stop  offset="1" style="stop-color:#4042E2"/>
					</linearGradient>
					<polygon style="fill:url(#SVGID_00000034068428790100061410000006840707102364015014_);" points="2140.035,710.822 
						1898.085,716.169 1940.733,1109.571 2229.252,1110.089 					"/>
					
						<linearGradient id="SVGID_00000130645781836761693170000015417836190470355871_" gradientUnits="userSpaceOnUse" x1="1543.0994" y1="1147.4349" x2="1615.0657" y2="648.8126">
						<stop  offset="0" style="stop-color:#4F52FF"/>
						<stop  offset="1" style="stop-color:#4042E2"/>
					</linearGradient>
					<polygon style="fill:url(#SVGID_00000130645781836761693170000015417836190470355871_);" points="1433.117,726.445 
						1406.062,1108.611 1719.365,1109.173 1691.865,720.726 					"/>
					
						<linearGradient id="SVGID_00000120561192058476407930000012724388120029316026_" gradientUnits="userSpaceOnUse" x1="2455.54" y1="557.6787" x2="2455.54" y2="1123.1252">
						<stop  offset="0" style="stop-color:#FE7062"/>
						<stop  offset="1" style="stop-color:#FF928E"/>
					</linearGradient>
					<polygon style="fill:url(#SVGID_00000120561192058476407930000012724388120029316026_);" points="2771.045,1111.061 
						2280.196,707.724 2140.035,710.822 2229.252,1110.089 					"/>
				</g>
				<g>
					
						<linearGradient id="SVGID_00000182507429820580032290000017504715562901613218_" gradientUnits="userSpaceOnUse" x1="676.0437" y1="1368.3427" x2="703.309" y2="664.9129">
						<stop  offset="0" style="stop-color:#FE7062"/>
						<stop  offset="1" style="stop-color:#FF928E"/>
					</linearGradient>
					<path style="fill:url(#SVGID_00000182507429820580032290000017504715562901613218_);" d="M473.94,1106.938
						c0,0-20.62,136.094,164.963,152.59c185.583,16.497,259.816-152.59,259.816-152.59H473.94z"/>
					
						<linearGradient id="SVGID_00000023272597306789408060000006725811589106579353_" gradientUnits="userSpaceOnUse" x1="1093.2639" y1="553.8134" x2="1031.5793" y2="1206.6475">
						<stop  offset="0" style="stop-color:#4F52FF"/>
						<stop  offset="1" style="stop-color:#4042E2"/>
					</linearGradient>
					<path style="fill:url(#SVGID_00000023272597306789408060000006725811589106579353_);" d="M1183.28,1106.938
						c0,0-8.248,148.466-148.467,152.59c-156.972,4.617-136.094-152.59-136.094-152.59H1183.28z"/>
					
						<linearGradient id="SVGID_00000150092532852146672680000010379928027306457477_" gradientUnits="userSpaceOnUse" x1="1283.6116" y1="1391.8916" x2="1310.8768" y2="688.462">
						<stop  offset="0" style="stop-color:#FE7062"/>
						<stop  offset="1" style="stop-color:#FF928E"/>
					</linearGradient>
					<path style="fill:url(#SVGID_00000150092532852146672680000010379928027306457477_);" d="M1183.28,1106.938h222.7
						c0,0,0,152.59-111.35,152.59C1182.594,1259.528,1183.28,1106.938,1183.28,1106.938z"/>
				</g>
				<g>
					
						<linearGradient id="SVGID_00000077296711485421401640000011690256695853660033_" gradientUnits="userSpaceOnUse" x1="-842.9138" y1="1317.7397" x2="-815.6485" y2="614.31" gradientTransform="matrix(-1 0 0 1 1665.8347 0)">
						<stop  offset="0" style="stop-color:#FE7062"/>
						<stop  offset="1" style="stop-color:#FF928E"/>
					</linearGradient>
					<path style="fill:url(#SVGID_00000077296711485421401640000011690256695853660033_);" d="M2771.045,1106.938
						c0,0-95.535,136.094-281.118,152.59c-185.583,16.497-259.816-152.59-259.816-152.59H2771.045z"/>
					
						<linearGradient id="SVGID_00000080890615011306762230000012441758493047425441_" gradientUnits="userSpaceOnUse" x1="-116.5781" y1="-2125.4109" x2="-178.2627" y2="-1472.5768" gradientTransform="matrix(-1 0 0 1 1665.8347 0)">
						<stop  offset="0" style="stop-color:#4F52FF"/>
						<stop  offset="1" style="stop-color:#4042E2"/>
					</linearGradient>
					<path style="fill:url(#SVGID_00000080890615011306762230000012441758493047425441_);" d="M1945.55,1106.938
						c0,0,8.248,148.466,148.467,152.59c156.972,4.617,136.094-152.59,136.094-152.59H1945.55z"/>
					
						<linearGradient id="SVGID_00000132807503204478627550000014738314753261392564_" gradientUnits="userSpaceOnUse" x1="-177.5086" y1="1343.5305" x2="-150.2434" y2="640.101" gradientTransform="matrix(-1 0 0 1 1665.8347 0)">
						<stop  offset="0" style="stop-color:#FE7062"/>
						<stop  offset="1" style="stop-color:#FF928E"/>
					</linearGradient>
					<path style="fill:url(#SVGID_00000132807503204478627550000014738314753261392564_);" d="M1945.55,1106.938h-222.7
						c0,0,0,152.59,111.35,152.59C1946.235,1259.528,1945.55,1106.938,1945.55,1106.938z"/>
				</g>
				
					<linearGradient id="SVGID_00000123424343596209193470000014112864081947233978_" gradientUnits="userSpaceOnUse" x1="1612.384" y1="602.865" x2="1550.6995" y2="1255.6996">
					<stop  offset="0" style="stop-color:#4F52FF"/>
					<stop  offset="1" style="stop-color:#4042E2"/>
				</linearGradient>
				<path style="fill:url(#SVGID_00000123424343596209193470000014112864081947233978_);" d="M1405.979,1106.938h317.553
					c0,0-20.62,148.466-156.714,152.59C1430.723,1263.652,1405.979,1106.938,1405.979,1106.938z"/>
			</g>
			<path style="fill:#FFFFFF;" d="M1434.611,1364.081l-78.773-61.268c-6.036-4.695-14.158-5.297-21.056-1.996
				c-38.081,18.226-163.102,18.226-201.183,0c-6.898-3.302-15.019-2.699-21.056,1.996l-78.773,61.268
				c-8.68,6.751-10.244,19.261-3.493,27.942l33.144,42.613c5.658,7.274,15.568,9.716,23.957,5.902l0,0
				c13.375-6.079,28.503,3.924,28.145,18.612l-2.953,121.072c-0.129,5.307,1.865,10.445,5.542,14.275l88.57,92.261h3.93h47.157h3.93
				l88.571-92.261c3.676-3.83,5.671-8.968,5.542-14.275l-2.953-121.072c-0.358-14.688,14.77-24.692,28.145-18.612l0,0
				c8.39,3.813,18.299,1.372,23.957-5.902l33.144-42.613C1444.856,1383.343,1443.292,1370.833,1434.611,1364.081z"/>
		</g>
		<g>
			
				<linearGradient id="SVGID_00000020386231190029140550000014841571857303380886_" gradientUnits="userSpaceOnUse" x1="571.481" y1="2421.9575" x2="915.89" y2="1717.7181">
				<stop  offset="0" style="stop-color:#4F52FF"/>
				<stop  offset="1" style="stop-color:#4042E2"/>
			</linearGradient>
			<path style="fill:url(#SVGID_00000020386231190029140550000014841571857303380886_);" d="M940.924,1777.684
				c0,0-109.87-77.105-168.561,60.544c-10.723,25.151-72.598,29.318-78.927,80.397c-3.266,26.372-22.78,47.491-49.046,51.517
				c-65.42,10.027-166.238,43.998-182.369,157.581c-12.312,86.695,31.885,119.57,78.268,130.949
				c34.067,8.357,56.706,41.493,49.816,75.886c-6.61,32.99,3.247,71.125,60.398,101.283
				c128.07,67.578,255.968-160.098,255.968-160.098l26.212-397.539L940.924,1777.684z"/>
			<g>
				
					<linearGradient id="SVGID_00000122720568924849454630000001956616576306985911_" gradientUnits="userSpaceOnUse" x1="2996.2219" y1="3538.5342" x2="3123.1367" y2="2055.2166" gradientTransform="matrix(-1 0 0 1 3976.04 0)">
					<stop  offset="0" style="stop-color:#FEBBBA"/>
					<stop  offset="1" style="stop-color:#FF928E"/>
				</linearGradient>
				<path style="fill:url(#SVGID_00000122720568924849454630000001956616576306985911_);" d="M965.352,2686.525l7.721,45.42
					c0,0-25.857,261.907-30.456,366.669c-0.721,16.425,3.529,32.656,12.149,46.655l44.961,73.011l-114.266-67.427l-2.274-13.944
					l18.705-25.718l-24.502-293.4c-1.439-17.236,2.118-34.522,10.245-49.79l23.634-44.401L965.352,2686.525z"/>
				
					<linearGradient id="SVGID_00000026131247333676076940000012255933050932426379_" gradientUnits="userSpaceOnUse" x1="2959.1465" y1="3174.6519" x2="3101.8484" y2="3174.6519" gradientTransform="matrix(-1 0 0 1 3976.04 0)">
					<stop  offset="0" style="stop-color:#4F52FF"/>
					<stop  offset="1" style="stop-color:#4042E2"/>
				</linearGradient>
				<path style="fill:url(#SVGID_00000026131247333676076940000012255933050932426379_);" d="M1007.251,3228.858h-36.464
					c-6.825,0-13.262-3.133-17.425-8.543c-11.368-14.771-34.921-43.589-46.182-44.341c-15.161-1.012-13.221,52.884-13.221,52.884
					h-8.498l-10.765-66.972c-2.707-16.851,5.672-33.545,20.804-41.439l0,0c0,0,3.465,25.629,22.257,36.965
					c18.791,11.336,76.468,51.935,76.468,51.935s7.065-1.006,14.819,0.395C1020.55,3211.82,1018.943,3228.858,1007.251,3228.858z"/>
			</g>
			
				<linearGradient id="SVGID_00000052096607917242092100000015096001429493818033_" gradientUnits="userSpaceOnUse" x1="3094.4768" y1="3538.5342" x2="3221.3916" y2="2055.2166" gradientTransform="matrix(-1 0 0 1 3976.04 0)">
				<stop  offset="0" style="stop-color:#FEBBBA"/>
				<stop  offset="1" style="stop-color:#FF928E"/>
			</linearGradient>
			<path style="fill:url(#SVGID_00000052096607917242092100000015096001429493818033_);" d="M867.097,2686.525l7.721,45.42
				c0,0-25.857,261.907-30.456,366.669c-0.72,16.425,3.529,32.656,12.15,46.655l44.96,73.011l-114.266-67.427l-2.274-13.944
				l18.705-25.718l-24.501-293.4c-1.439-17.236,2.117-34.522,10.245-49.79l23.635-44.401L867.097,2686.525z"/>
			
				<linearGradient id="SVGID_00000010298569811086241700000011430134337874334086_" gradientUnits="userSpaceOnUse" x1="1502.2253" y1="1692.2595" x2="900.7949" y2="2499.3081">
				<stop  offset="0" style="stop-color:#E1473D"/>
				<stop  offset="1" style="stop-color:#E9605A"/>
			</linearGradient>
			<path style="fill:url(#SVGID_00000010298569811086241700000011430134337874334086_);" d="M736.678,2386.031
				c6.219-50.092,68.916-97.34,68.916-97.34c79.209,28.367,135.688-13.595,135.688-13.595s24.654,50.672,24.915,102.281
				c0.262,51.61,3.411,383,3.411,383c-91.574,38.379-186.13,19.557-186.13,19.557
				C790.546,2660.629,730.457,2436.121,736.678,2386.031z"/>
			
				<linearGradient id="SVGID_00000031915092400949742700000014981597594028812479_" gradientUnits="userSpaceOnUse" x1="3057.4011" y1="3174.6519" x2="3200.1025" y2="3174.6519" gradientTransform="matrix(-1 0 0 1 3976.04 0)">
				<stop  offset="0" style="stop-color:#4F52FF"/>
				<stop  offset="1" style="stop-color:#4042E2"/>
			</linearGradient>
			<path style="fill:url(#SVGID_00000031915092400949742700000014981597594028812479_);" d="M908.996,3228.858h-36.465
				c-6.825,0-13.262-3.133-17.424-8.543c-11.368-14.771-34.921-43.589-46.182-44.341c-15.161-1.012-13.221,52.884-13.221,52.884
				h-8.498l-10.764-66.972c-2.708-16.851,5.672-33.545,20.804-41.439l0,0c0,0,3.465,25.629,22.256,36.965
				c18.791,11.336,76.468,51.935,76.468,51.935s7.065-1.006,14.821,0.395C922.295,3211.82,920.689,3228.858,908.996,3228.858z"/>
			
				<linearGradient id="SVGID_00000179648352023457614840000017764781527102126778_" gradientUnits="userSpaceOnUse" x1="1249.5868" y1="1805.4912" x2="858.9135" y2="2160.1809">
				<stop  offset="0" style="stop-color:#FF928E"/>
				<stop  offset="1" style="stop-color:#FE7062"/>
			</linearGradient>
			<path style="fill:url(#SVGID_00000179648352023457614840000017764781527102126778_);" d="M806.281,2290.584
				c24.389-103.349-5.011-178.673-30.554-220.693c-15.827-26.037-3.812-60.158,24.638-71.069
				c45.602-17.489,97.722-20.836,124.468-21.291c11.536-0.196,22.374,5.278,29.223,14.564
				c19.382,26.28,55.969,83.478,46.389,129.691c-7.552,36.42-58.44,182.019-58.44,182.019S878.407,2333.905,806.281,2290.584z"/>
			
				<linearGradient id="SVGID_00000061453491418827557800000006291776088839255965_" gradientUnits="userSpaceOnUse" x1="774.1418" y1="2125.5974" x2="927.2198" y2="1881.1295">
				<stop  offset="0" style="stop-color:#FEBBBA"/>
				<stop  offset="1" style="stop-color:#FF928E"/>
			</linearGradient>
			<path style="fill:url(#SVGID_00000061453491418827557800000006291776088839255965_);" d="M878.672,1861.448l-25.418,125.882
				c-3.041,12.569,15.117,15.297,28.006,16.35c22.036,1.802,34.401-3.424,43.367-19.616c0.913-1.649,1.368-3.511,1.626-5.379
				l13.648-98.948c1.082-7.85-3.161-15.47-10.405-18.682l-26.337-11.677C893.017,1844.881,881.281,1850.667,878.672,1861.448z"/>
			<g>
				
					<linearGradient id="SVGID_00000096056907996411064620000001530272003038285485_" gradientUnits="userSpaceOnUse" x1="1550.2637" y1="5341.8906" x2="1739.5176" y2="5005.082" gradientTransform="matrix(-0.9832 -0.1824 -0.1824 0.9832 3455.8948 -3005.1804)">
					<stop  offset="0" style="stop-color:#FEBBBA"/>
					<stop  offset="1" style="stop-color:#FF928E"/>
				</linearGradient>
				<path style="fill:url(#SVGID_00000096056907996411064620000001530272003038285485_);" d="M931.791,1768.839
					c0,0,31.021,20.454,44.885,73.333c13.864,52.879-7.391,72.166-29.429,71.266c-22.037-0.898-54.053-7.323-82.182-45.038
					C836.936,1830.686,891.164,1743.877,931.791,1768.839z"/>
				
					<linearGradient id="SVGID_00000131328571175307923570000014756261066050266295_" gradientUnits="userSpaceOnUse" x1="584.1683" y1="2428.1614" x2="928.577" y2="1723.9227">
					<stop  offset="0" style="stop-color:#4F52FF"/>
					<stop  offset="1" style="stop-color:#4042E2"/>
				</linearGradient>
				<path style="fill:url(#SVGID_00000131328571175307923570000014756261066050266295_);" d="M892.707,1846.669
					c0,0-12.196-75.864,51.046-65.004l12.92,13.129c0,0,30.464-35.157-4.034-61.035c-34.498-25.879-81.847-18.571-107.507,29.614
					c-25.661,48.184-34.777,81.935-12.422,111.413c22.355,29.477,38.59,3.766,38.59,3.766s-10.399-25.62-2.163-36.769
					c8.235-11.147,19.245,6.191,19.245,6.191L892.707,1846.669z"/>
				
					<linearGradient id="SVGID_00000163770072463993742040000014540873096152008633_" gradientUnits="userSpaceOnUse" x1="1590.5488" y1="5364.5273" x2="1779.7993" y2="5027.7251" gradientTransform="matrix(-0.9832 -0.1824 -0.1824 0.9832 3455.8948 -3005.1804)">
					<stop  offset="0" style="stop-color:#FEBBBA"/>
					<stop  offset="1" style="stop-color:#FF928E"/>
				</linearGradient>
				<path style="fill:url(#SVGID_00000163770072463993742040000014540873096152008633_);" d="M884.162,1853.283
					c0,0-6.039-39.035-25.874-27.614c-19.834,11.42,7.64,36.439,18.637,44.931L884.162,1853.283z"/>
			</g>
			
				<linearGradient id="SVGID_00000016784906278690563290000010450912848463830969_" gradientUnits="userSpaceOnUse" x1="837.6057" y1="2156.3018" x2="1273.9908" y2="1948.3904">
				<stop  offset="0" style="stop-color:#FEBBBA"/>
				<stop  offset="1" style="stop-color:#FF928E"/>
			</linearGradient>
			<path style="fill:url(#SVGID_00000016784906278690563290000010450912848463830969_);" d="M1226.186,2023.25
				c0.645-4.99-5.215-8.25-9.097-5.049c-14.472,11.932-42.52,30.826-69.847,25.385c-1.377-0.273-2.701-0.504-3.994-0.708
				c1.039-3.504,3.335-6.813,8.032-8.694c13.443-5.385,11.199-27.152,11.199-27.152s-9.132,11.401-23.471,12.571
				c-12.351,1.009-26.189,12.797-29.117,28.362c-19.419,51.846-43.127,121.801-138.797,118.104
				c-71.016-2.744-107.197-85.858-121.13-128.513c-5.44-16.658-21.7-27.675-39.131-25.887
				c-23.052,2.364-38.369,13.006-44.315,33.672c-2.982,10.366-1.6,21.488,3.23,31.134c21.193,42.331,97.819,176.608,211.248,163.155
				c134.457-15.949,154.755-161.811,154.755-161.811S1216.716,2096.511,1226.186,2023.25z"/>
		</g>
		<g>
			
				<linearGradient id="SVGID_00000068676729851059332640000011903204428196187277_" gradientUnits="userSpaceOnUse" x1="369.4371" y1="3122.998" x2="-140.8671" y2="3678.0664" gradientTransform="matrix(-1 0 0 1 3074.1316 0)">
				<stop  offset="0" style="stop-color:#09005D"/>
				<stop  offset="1" style="stop-color:#1A0F91"/>
			</linearGradient>
			<path style="fill:url(#SVGID_00000068676729851059332640000011903204428196187277_);" d="M2866.002,3164.347
				c0,0,5.285,29.919,7.876,59.534c1.013,11.574-7.912,21.624-19.52,22.108c-39.44,1.643-123.803,4.836-154.075,3.486
				c-4.551-0.203-7.526-4.862-5.842-9.094l0,0c1.411-3.548,4.134-6.415,7.602-8.009l139.353-64.046L2866.002,3164.347z"/>
			
				<linearGradient id="SVGID_00000018955263866475898100000002199742784210931588_" gradientUnits="userSpaceOnUse" x1="203.7994" y1="3164.2241" x2="249.1269" y2="3164.2241" gradientTransform="matrix(-1 0 0 1 3074.1316 0)">
				<stop  offset="0" style="stop-color:#FEBBBA"/>
				<stop  offset="1" style="stop-color:#FF928E"/>
			</linearGradient>
			<path style="fill:url(#SVGID_00000018955263866475898100000002199742784210931588_);" d="M2870.332,3146.769l-4.246,35.786
				c0,0-24.411,11.364-41.082-1.432l10.108-39.881L2870.332,3146.769z"/>
			
				<linearGradient id="SVGID_00000094577440896591921780000007754708434582467744_" gradientUnits="userSpaceOnUse" x1="121.6827" y1="3123.9211" x2="221.8419" y2="2542.0449" gradientTransform="matrix(-1 0 0 1 3074.1316 0)">
				<stop  offset="0" style="stop-color:#09005D"/>
				<stop  offset="1" style="stop-color:#1A0F91"/>
			</linearGradient>
			<path style="fill:url(#SVGID_00000094577440896591921780000007754708434582467744_);" d="M2867.141,2473.975
				c1.834,9.345,9.844,466.356-39.006,671.159c-0.798,3.342,0.896,6.787,4.077,8.085c7.492,3.061,22.181,7.494,39.785,8.087
				c5.452,0.182,10.34-3.361,11.878-8.594c13.964-47.517,80.876-285.593,89.605-513.018c9.754-254.127,0-8.653,0-8.653
				l-5.721-157.086L2867.141,2473.975z"/>
			
				<linearGradient id="SVGID_00000098907195365285853440000016574105604744036258_" gradientUnits="userSpaceOnUse" x1="254.9567" y1="3017.7532" x2="-255.3444" y2="3572.8181" gradientTransform="matrix(-1 0 0 1 3074.1316 0)">
				<stop  offset="0" style="stop-color:#09005D"/>
				<stop  offset="1" style="stop-color:#1A0F91"/>
			</linearGradient>
			<path style="fill:url(#SVGID_00000098907195365285853440000016574105604744036258_);" d="M3026.304,3179.955
				c0,0,8.413,15.104,16.557,55.239c1.47,7.248-3.594,14.185-10.954,14.909c-13.023,1.281-33.072,2.927-49.132,2.817
				c-7.403-0.051-13.18-6.498-12.288-13.847c1.779-14.65,7.321-38.685,24.441-57.417L3026.304,3179.955z"/>
			
				<linearGradient id="SVGID_00000083777964905614896170000011104752453849402546_" gradientUnits="userSpaceOnUse" x1="40.4387" y1="3161.8999" x2="79.5746" y2="3161.8999" gradientTransform="matrix(-1 0 0 1 3074.1316 0)">
				<stop  offset="0" style="stop-color:#FEBBBA"/>
				<stop  offset="1" style="stop-color:#FF928E"/>
			</linearGradient>
			<path style="fill:url(#SVGID_00000083777964905614896170000011104752453849402546_);" d="M3033.693,3133.926l-9.921,54.119
				c0,0-9.809,7.297-29.215,2.007l4.735-58.228L3033.693,3133.926z"/>
			
				<linearGradient id="SVGID_00000155854989952178056750000015857829740082026930_" gradientUnits="userSpaceOnUse" x1="8.427" y1="3104.4258" x2="108.5864" y2="2522.5491" gradientTransform="matrix(-1 0 0 1 3074.1316 0)">
				<stop  offset="0" style="stop-color:#09005D"/>
				<stop  offset="1" style="stop-color:#1A0F91"/>
			</linearGradient>
			<path style="fill:url(#SVGID_00000155854989952178056750000015857829740082026930_);" d="M3060.495,2487.998
				c39.954,241.123-8.667,595.956-25.064,665.405c-1.004,4.252-4.436,7.51-8.745,8.224c-7.319,1.214-19.369,2.204-31.25-1.247
				c-4.093-1.188-6.969-4.88-7.136-9.14c-2.199-56.147,1.761-400.839-35.467-537.064c-1.887-6.904-6.104-12.924-11.936-17.071
				l-72.257-51.368l-5.539-83.032L3060.495,2487.998z"/>
			<g>
				
					<linearGradient id="SVGID_00000109020169969890748640000011706154958325912996_" gradientUnits="userSpaceOnUse" x1="3514.4465" y1="1790.2877" x2="2990.1223" y2="2175.8201">
					<stop  offset="0" style="stop-color:#FF928E"/>
					<stop  offset="1" style="stop-color:#FE7062"/>
				</linearGradient>
				<path style="fill:url(#SVGID_00000109020169969890748640000011706154958325912996_);" d="M2805.909,2031.116
					c119.734-1.978,251.846,31.438,251.846,31.438c35.69,208.251,6.241,448.454,6.241,448.454
					c-92.694,24.308-197.26-14.863-197.26-14.863c-15.406-87.044-87.289-332.014-87.289-332.014
					c-58.502-7.26-106.695-24.139-146.381-46.454c30.273-35.091,44.544-79.74,50.743-106.134
					C2726.142,2024.699,2768.979,2031.727,2805.909,2031.116z"/>
				
					<linearGradient id="SVGID_00000132802909899509599230000018123360154507325312_" gradientUnits="userSpaceOnUse" x1="390.3227" y1="1981.6794" x2="621.8937" y2="1981.6794" gradientTransform="matrix(-1 0 0 1 3074.1316 0)">
					<stop  offset="0" style="stop-color:#FEBBBA"/>
					<stop  offset="1" style="stop-color:#FF928E"/>
				</linearGradient>
				<path style="fill:url(#SVGID_00000132802909899509599230000018123360154507325312_);" d="M2452.238,1854.755
					c11.761-14.206,26.649-7.486,26.649-7.486c17.619,74.429,110.007,134.777,204.922,164.275
					c-6.198,26.394-20.47,71.043-50.743,106.134C2475.546,2029.11,2452.238,1854.755,2452.238,1854.755z"/>
			</g>
			<g>
				
					<linearGradient id="SVGID_00000081632709074091286570000002806661968199616952_" gradientUnits="userSpaceOnUse" x1="9877.4707" y1="1942.8634" x2="10032.8613" y2="2296.4126" gradientTransform="matrix(1 0 0 1 -7373.6465 0)">
					<stop  offset="0" style="stop-color:#FEBBBA"/>
					<stop  offset="1" style="stop-color:#FF928E"/>
				</linearGradient>
				<path style="fill:url(#SVGID_00000081632709074091286570000002806661968199616952_);" d="M2455.092,1858.368
					c-1.231,3.913,13.021,9.87,21.413-6.132c0.293-7.669,4.957-40.525,0.375-46.773c-24.407-33.275-71.727-74.987-71.727-74.987
					c-7.997,7.892-1.408,15.643-1.408,15.643l22.955,23.914c-4.802,8.676-10.658,16.001-13.403,26.495
					c-2.08,7.948-0.808,16.442,3.207,23.675c4.03,7.26,9.527,16.696,14.725,24.081
					C2441.065,1858.263,2455.092,1858.368,2455.092,1858.368z"/>
				
					<linearGradient id="SVGID_00000085959824368821154430000005664118475142905497_" gradientUnits="userSpaceOnUse" x1="620.7827" y1="1825.1188" x2="685.6201" y2="1725.4312" gradientTransform="matrix(-1 0 0 1 3074.1316 0)">
					<stop  offset="0" style="stop-color:#FEBBBA"/>
					<stop  offset="1" style="stop-color:#FF928E"/>
				</linearGradient>
				<path style="fill:url(#SVGID_00000085959824368821154430000005664118475142905497_);" d="M2436.74,1785.55l20.919,17.733
					l6.567,17.655l-18.651,20.691c0,0-6.271-35.032-10.932-42.615C2429.982,1791.432,2432.4,1787.767,2436.74,1785.55z"/>
			</g>
			
				<linearGradient id="SVGID_00000059269141088608720420000003746348784390072508_" gradientUnits="userSpaceOnUse" x1="3548.0984" y1="1836.0543" x2="3023.7742" y2="2221.5867">
				<stop  offset="0" style="stop-color:#FF928E"/>
				<stop  offset="1" style="stop-color:#FE7062"/>
			</linearGradient>
			<path style="fill:url(#SVGID_00000059269141088608720420000003746348784390072508_);" d="M3011.831,2178.492l45.924-115.938
				c0,0,111.838,75.99,130.23,172.335c-21.132,1.556-56.56,7.405-94.198,26.41
				C3076.801,2223.08,3011.831,2178.492,3011.831,2178.492z"/>
			
				<linearGradient id="SVGID_00000041294248631094990430000004539988016968693414_" gradientUnits="userSpaceOnUse" x1="2942.7126" y1="2117.8318" x2="2881.9431" y2="1946.5729">
				<stop  offset="0" style="stop-color:#FEBBBA"/>
				<stop  offset="1" style="stop-color:#FF928E"/>
			</linearGradient>
			<path style="fill:url(#SVGID_00000041294248631094990430000004539988016968693414_);" d="M2927.189,1933.911l38.098,110.175
				c0.631,1.825-0.119,3.846-1.81,4.78c-10.385,5.742-47.8,22.339-92.888-6.248c-4.698-2.978-7.894-7.835-8.608-13.351
				l-12.336-95.357H2927.189z"/>
			<g>
				
					<linearGradient id="SVGID_00000165230093230803204450000005960005371982643903_" gradientUnits="userSpaceOnUse" x1="-5451.7061" y1="-1212.3718" x2="-5495.0034" y2="-1355.1764" gradientTransform="matrix(-0.746 -0.6659 -0.6659 0.746 -2052.2039 -803.1727)">
					<stop  offset="0" style="stop-color:#FEBBBA"/>
					<stop  offset="1" style="stop-color:#FF928E"/>
				</linearGradient>
				<path style="fill:url(#SVGID_00000165230093230803204450000005960005371982643903_);" d="M2844.295,1831.887
					c0,0-41.835,78.749-36.472,110.56c5.362,31.811,57.211,29.527,102.486,3.691l31.636-85.032L2844.295,1831.887z"/>
				
					<linearGradient id="SVGID_00000165201340645081312600000014404089112620271286_" gradientUnits="userSpaceOnUse" x1="-5490.7686" y1="-1461.1875" x2="-5454.5508" y2="-1254.6121" gradientTransform="matrix(-0.746 -0.6659 -0.6659 0.746 -2052.2039 -803.1727)">
					<stop  offset="0" style="stop-color:#09005D"/>
					<stop  offset="1" style="stop-color:#1A0F91"/>
				</linearGradient>
				<path style="fill:url(#SVGID_00000165201340645081312600000014404089112620271286_);" d="M2908.307,1904.379
					c-1.84-0.815-2.519-3.066-1.416-4.75c3.351-5.12,9.634-15.566,11.638-24.712c0,0,7.521-4.816-19.141-11.198
					c-26.662-6.383-66.422-16.287-74.78-38.982c-8.148-22.126,13.261-77.771,47.416-33.434c1.3,1.687,3.846,1.723,5.143,0.035
					c5.599-7.287,20.32-22.414,40.758-13.243c19.125,8.581,21.28,22.596,21.017,29.659c-0.077,2.078,1.78,3.693,3.823,3.304
					c9.669-1.844,32.874-3.428,43.705,20.376c8.922,19.607,3.123,30.706-2.157,36.135c-1.712,1.759-0.961,4.655,1.385,5.373
					c6.356,1.946,14.562,7.334,13.74,22.222c-1.135,20.584-24.149,18.771-30.701,17.832c-1.074-0.153-2.154,0.216-2.882,1.02
					c-5.618,6.217-30.931,32.617-58.326,35.798c-2.373,0.276-4.211-2.067-3.434-4.325l11.856-34.464
					c0.55-1.6-0.215-3.356-1.763-4.042L2908.307,1904.379z"/>
				
					<linearGradient id="SVGID_00000145772688482479754710000002519008380842705569_" gradientUnits="userSpaceOnUse" x1="-5495.9658" y1="-1213.0356" x2="-5534.9214" y2="-1341.5212" gradientTransform="matrix(-0.746 -0.6659 -0.6659 0.746 -2052.2039 -803.1727)">
					<stop  offset="0" style="stop-color:#FEBBBA"/>
					<stop  offset="1" style="stop-color:#FF928E"/>
				</linearGradient>
				<path style="fill:url(#SVGID_00000145772688482479754710000002519008380842705569_);" d="M2903.541,1909.271
					c0,0,29.787-20.437,31.963-3.227c2.176,17.211-26.823,24.929-41.187,18.513L2903.541,1909.271z"/>
			</g>
			<g>
				<path style="fill:#91B3FA;" d="M2669.971,2882.902c3.939,0,7.441-2.802,8.191-6.816l54.304-291.384
					c0.843-4.527-2.145-8.883-6.674-9.728c-4.513-0.851-8.883,2.142-9.729,6.673l-54.304,291.385
					c-0.843,4.527,2.145,8.883,6.674,9.728C2668.948,2882.855,2669.464,2882.902,2669.971,2882.902z"/>
				<path style="fill:#91B3FA;" d="M2284.587,2893.72h446.273c9.213,0,16.683-7.47,16.683-16.683c0-9.213-7.47-16.683-16.683-16.683
					h-435.313l-112.774-260.673h644.014c9.213,0,16.683-7.47,16.683-16.684c0-9.213-7.47-16.683-16.683-16.683h-669.41
					c-5.619,0-10.859,2.827-13.944,7.523c-3.084,4.696-3.599,10.628-1.369,15.785l127.209,294.04
					C2271.918,2889.767,2277.934,2893.72,2284.587,2893.72z"/>
				<g>
					<path style="fill:#91B3FA;" d="M2314.189,3185.537h351.655c7.68,0,14.451-5.045,16.643-12.407l209.429-698.743h146.285
						c9.59,0,17.365-7.775,17.365-17.366c0-9.59-7.775-17.366-17.365-17.366H2878.97c-7.68,0-14.451,5.045-16.643,12.408
						l-209.43,698.743h-338.709c-9.591,0-17.366,7.776-17.366,17.366C2296.824,3177.762,2304.599,3185.537,2314.189,3185.537z"/>
				</g>
				<g>
					
						<linearGradient id="SVGID_00000007407579172696033700000008695008220757110446_" gradientUnits="userSpaceOnUse" x1="2621.7065" y1="3211.5857" x2="2708.5349" y2="3211.5857">
						<stop  offset="0" style="stop-color:#4F52FF"/>
						<stop  offset="1" style="stop-color:#4042E2"/>
					</linearGradient>
					
						<circle style="fill:url(#SVGID_00000007407579172696033700000008695008220757110446_);" cx="2665.121" cy="3211.586" r="43.414"/>
					<path style="fill:#91B3FA;" d="M2634.972,3211.586c0,17.317,14.038,31.355,31.354,31.355c17.317,0,31.355-14.038,31.355-31.355
						c0-17.316-14.038-31.354-31.355-31.354C2649.01,3180.231,2634.972,3194.269,2634.972,3211.586z"/>
				</g>
				<g>
					
						<linearGradient id="SVGID_00000049924019895707392130000008169166654131483020_" gradientUnits="userSpaceOnUse" x1="2293.2058" y1="3211.5857" x2="2380.0342" y2="3211.5857">
						<stop  offset="0" style="stop-color:#4F52FF"/>
						<stop  offset="1" style="stop-color:#4042E2"/>
					</linearGradient>
					
						<circle style="fill:url(#SVGID_00000049924019895707392130000008169166654131483020_);" cx="2336.62" cy="3211.586" r="43.414"/>
					<path style="fill:#91B3FA;" d="M2306.471,3211.586c0,17.317,14.038,31.355,31.355,31.355c17.316,0,31.354-14.038,31.354-31.355
						c0-17.316-14.038-31.354-31.354-31.354C2320.509,3180.231,2306.471,3194.269,2306.471,3211.586z"/>
				</g>
				<path style="fill:#91B3FA;" d="M2595.793,2884.226c4.529,0,8.244-3.625,8.335-8.175l5.778-288.716
					c0.092-4.606-3.566-8.415-8.172-8.507c-4.686-0.185-8.415,3.566-8.507,8.173l-5.777,288.716
					c-0.092,4.607,3.566,8.415,8.172,8.506C2595.678,2884.226,2595.735,2884.226,2595.793,2884.226z"/>
				<path style="fill:#91B3FA;" d="M2511.023,2882.9c4.607,0,8.342-3.735,8.342-8.342v-287.411c0-4.606-3.735-8.341-8.342-8.341
					c-4.606,0-8.341,3.735-8.341,8.341v287.411C2502.682,2879.165,2506.416,2882.9,2511.023,2882.9z"/>
				<path style="fill:#91B3FA;" d="M2411.684,2881.576c0.021,0,0.041,0,0.041,0c4.625-0.032,8.335-3.792,8.303-8.399l-1.975-286.066
					c-0.033-4.588-3.762-8.285-8.339-8.285c-0.021,0-0.041,0-0.059,0c-4.606,0.032-8.317,3.792-8.284,8.398l1.976,286.067
					C2403.377,2877.879,2407.106,2881.576,2411.684,2881.576z"/>
				<path style="fill:#91B3FA;" d="M2347.141,2879.124c0.525,0,1.061-0.051,1.597-0.154c4.523-0.878,7.478-5.254,6.6-9.778
					l-54.22-279.442c-0.878-4.519-5.259-7.47-9.778-6.6c-4.523,0.877-7.478,5.254-6.6,9.777l54.22,279.442
					C2339.734,2876.354,2343.227,2879.124,2347.141,2879.124z"/>
				<path style="fill:#91B3FA;" d="M2187.851,2663.038h615.88c4.607,0,8.342-3.735,8.342-8.342c0-4.607-3.735-8.341-8.342-8.341
					h-615.88c-4.606,0-8.341,3.735-8.341,8.341C2179.51,2659.303,2183.244,2663.038,2187.851,2663.038z"/>
				<path style="fill:#91B3FA;" d="M2224.936,2747.804h550.982c4.607,0,8.342-3.735,8.342-8.342s-3.735-8.342-8.342-8.342h-550.982
					c-4.607,0-8.341,3.735-8.341,8.342S2220.329,2747.804,2224.936,2747.804z"/>
				<path style="fill:#91B3FA;" d="M2262.021,2825.948h492.706c4.606,0,8.342-3.735,8.342-8.341s-3.735-8.342-8.342-8.342h-492.706
					c-4.606,0-8.341,3.735-8.341,8.342S2257.414,2825.948,2262.021,2825.948z"/>
			</g>
			
				<linearGradient id="SVGID_00000159468753416799871940000001034832454227869087_" gradientUnits="userSpaceOnUse" x1="122.7856" y1="2473.5508" x2="-115.7635" y2="2282.7117" gradientTransform="matrix(-1 0 0 1 3074.1316 0)">
				<stop  offset="0" style="stop-color:#FEBBBA"/>
				<stop  offset="1" style="stop-color:#FF928E"/>
			</linearGradient>
			<path style="fill:url(#SVGID_00000159468753416799871940000001034832454227869087_);" d="M3187.211,2235.82
				c0,0,76.439,174.11-110.411,199.59l-25.479-21.233c0,0,93.425-50.959,42.466-152.877
				C3093.787,2261.299,3148.992,2214.587,3187.211,2235.82z"/>
			
				<linearGradient id="SVGID_00000126289876625792511370000013249577125970494129_" gradientUnits="userSpaceOnUse" x1="115.0497" y1="2483.2209" x2="-123.4991" y2="2292.3821" gradientTransform="matrix(-1 0 0 1 3074.1316 0)">
				<stop  offset="0" style="stop-color:#FEBBBA"/>
				<stop  offset="1" style="stop-color:#FF928E"/>
			</linearGradient>
			<path style="fill:url(#SVGID_00000126289876625792511370000013249577125970494129_);" d="M3051.321,2414.177h-67.946
				c0,0-42.466,55.206-38.219,67.945c4.247,12.74,46.216,2.614,46.216,2.614l21.729-36.587c0,0,63.698,4.247,63.698-12.74
				S3051.321,2414.177,3051.321,2414.177z"/>
		</g>
	</g>
</g>
</svg>
